<svg enable-background="new 0 0 25.1 28.5" height="28.5" viewBox="0 0 25.1 28.5" width="25.1" xmlns="http://www.w3.org/2000/svg"><path d="m23.7 17.3-.3-.9-3.8 1.3-4.7-2.7c.2-.5.2-1.1 0-1.6l4.6-2.7 3.8 1.3.3-.9-3-1 4.5-2.6-.5-.8-4.5 2.6.6-3.1-1-.2-.7 3.9-4.6 2.7c-.4-.4-.8-.7-1.4-.8v-5.3l3-2.6-.6-.7-2.4 2.1v-5.3h-1v5.2l-2.3-2.1-.6.7 3 2.6v5.3c-.5.1-1 .4-1.4.8l-4.6-2.6-.8-3.9-1 .2.7 3.1-4.5-2.6-.5.8 4.5 2.6-3 1.1.3.9 3.8-1.3 4.6 2.7c-.2.5-.2 1 0 1.5l-4.6 2.7-3.8-1.3-.3.9 3 1-4.5 2.6.5.8 4.5-2.5-.6 3.1 1 .2.7-3.9 4.6-2.7c.4.4.8.7 1.4.8v5.3l-3 2.6.6.7 2.4-2.1v5.2h1v-5.2l2.4 2.1.6-.7-3-2.6v-5.3c.5-.1 1-.4 1.4-.8l4.6 2.7.7 3.9 1-.2-.6-3.1 4.5 2.6.5-.8-4.5-2.6zm-11.1-1.7c-.7 0-1.3-.6-1.3-1.3s.6-1.3 1.3-1.3 1.3.6 1.3 1.3c0 .7-.6 1.3-1.3 1.3" fill="#231f20"/></svg>