<svg enable-background="new 0 0 25.8 26.6" height="26.6" viewBox="0 0 25.8 26.6" width="25.8" xmlns="http://www.w3.org/2000/svg"><path d="m24.6.5-.1-.5-.5.1c-.4.1-8.9 2.6-12 7.6-.2.3-.3.5-.4.8-1.9-.8-4-1.1-6.1-1.1-1.7.1-3.3.2-5 .6l-.5.1.1.5c.1.3 1.4 7.8 5.5 10.9 1 .8 2.3 1.2 3.6 1.2 1.9-.1 3.6-.7 5.2-1.8.7 2.5.5 5.1-.5 7.4l.9.4c1.1-2.5 1.3-5.4.6-8.1.6.1 1.2.1 1.7.1 2.5 0 5.9-.7 7.6-4.1 2.6-5.3 0-13.8-.1-14.1m-15.4 19.1c-1.1 0-2.1-.3-3-1-3.2-2.4-4.6-8-5-9.7 1.4-.2 2.9-.4 4.4-.4 2.3-.1 4.5.4 6.5 1.4 2.8 1.7 2.6 5.2 2.3 6.9-1-1.8-2.8-4.1-8.4-5.4l-.2.6c6 1.4 7.3 3.7 8.3 5.6-1.4 1.2-3.1 1.8-4.9 2m14.5-5.4c-1.4 2.9-4.4 3.5-6.7 3.5-.6 0-1.2 0-1.8-.1.3-1.2.4-2.4.3-3.6.7-2.6 2.2-4.9 4.3-6.6l-.4-.5c-1.9 1.5-3.4 3.5-4.2 5.8-.4-1.5-1.3-2.8-2.6-3.6 0 0-.1 0-.1-.1.1-.3.2-.5.4-.8 2.4-4 9-6.4 10.9-7 .5 1.9 2 8.7-.1 13" fill="#231f20"/></svg>