<svg enable-background="new 0 0 28.5 28.5" height="28.5" viewBox="0 0 28.5 28.5" width="28.5" xmlns="http://www.w3.org/2000/svg"><path d="m28.5 14.7v-1h-3.9c-.1-2.4-1.1-4.7-2.7-6.5l2.8-2.8-.7-.6-2.8 2.8c-1.8-1.6-4.1-2.6-6.5-2.7v-3.9h-1v3.9c-2.4.1-4.6 1.1-6.4 2.7l-2.8-2.8-.7.7 2.8 2.8c-1.6 1.8-2.6 4-2.7 6.4h-3.9v1h3.9c.1 2.4 1.1 4.7 2.7 6.5l-2.8 2.8.7.7 2.8-2.8c1.8 1.6 4.1 2.6 6.5 2.7v3.9h1v-3.9c2.4-.1 4.7-1.1 6.5-2.7l2.8 2.8.7-.7-2.8-2.8c1.6-1.8 2.6-4.1 2.7-6.5zm-14.3 8.9c-5.2 0-9.3-4.2-9.3-9.3s4.2-9.3 9.3-9.3 9.3 4.2 9.3 9.3c.1 5.1-4.1 9.3-9.3 9.3"/></svg>