<svg enable-background="new 0 0 30.6 34.5" height="34.5" viewBox="0 0 30.6 34.5" width="30.6" xmlns="http://www.w3.org/2000/svg"><path d="m30.6 18.3-1.8-.1c-.6 0-1.1-.1-1.7-.3.4-1.6 1.1-3.1 1.9-4.5l.6-1.2-1.3.3c-1.1.3-2.3.5-3.4.6-.1 0-.1 0-.2 0-.3-.8-.5-1.7-.7-2.6l-.2-1-3.5 2.9 1-7.4-1.1.8c-.8.6-1.6 1-2.5 1.3-.8-1.5-1.4-3.1-1.8-4.7l-.6-2.4-.6 2.3c-.3 1.6-.9 3.2-1.7 4.7-.9-.3-1.8-.7-2.5-1.3l-1.2-.8 1 7.4-3.6-2.9-.2 1c-.1.9-.4 1.8-.7 2.6 0 0-.1 0-.2 0-1.1-.1-2.3-.3-3.4-.6l-1.2-.2.6 1.2c.8 1.4 1.4 2.9 1.9 4.5-.5.2-1.1.3-1.7.3l-1.8.1 1.5 1c2.5 1.6 4.8 3.4 7.1 5.3-.2.4-.6.8-.9 1.2l-1.4 1.5 8.4-2.1c.3 4.6 2.9 9.3 6.5 9.3v-1.2c-2.9 0-5-4.1-5.3-8.1l8.4 2.1-1.4-1.5c-.4-.4-.7-.8-.9-1.3 2.3-1.9 4.7-3.6 7.1-5.3zm-9.8 6.1c0 .3.1.6.2.8l-4.7-1.2 4.5-3.9-.5-.6-4.7 4v-10h-.6v10.2l-4.7-4-.5.6 4.5 3.9-4.7 1.2c.1-.2.2-.5.2-.8s0-.8-6.4-5.2c.3-.1.7-.2 1-.5.3-.4.8-.9-1.1-4.9.8.2 1.6.3 2.4.3.4 0 .7-.1 1-.3.4-.7.7-1.5.8-2.3l4.3 3.5-1-7.8c.7.5 1.5.7 2.3.8.3 0 1.1-.1 2.2-3.6 1.1 3.5 1.9 3.6 2.2 3.6h.1c.8-.1 1.5-.4 2.2-.8l-1 7.8 4.3-3.5c.1.8.4 1.6.8 2.3.3.2.7.3 1 .3.8 0 1.6-.1 2.4-.3-2 4-1.4 4.5-1.1 4.8.3.2.6.4 1 .5-6.4 4.3-6.4 4.8-6.4 5.1"/></svg>